<?xml version="1.0" standalone="no"?>
<!DOCTYPE svg PUBLIC "-//W3C//DTD SVG 20010904//EN"
 "http://www.w3.org/TR/2001/REC-SVG-20010904/DTD/svg10.dtd">
<svg version="1.0" xmlns="http://www.w3.org/2000/svg"
 width="1223.000000pt" height="228.000000pt" viewBox="0 0 1223.000000 228.000000"
 preserveAspectRatio="xMidYMid meet">

<g transform="translate(0.000000,228.000000) scale(0.100000,-0.100000)"
fill="#000000" stroke="none">
<path d="M70 1935 l0 -225 293 -2 292 -3 3 -782 2 -783 260 0 260 0 0 785 0
785 125 0 125 0 0 -785 0 -785 235 0 235 0 2 650 3 651 170 -328 c392 -759
480 -926 489 -925 5 0 151 272 325 604 l316 603 3 -628 2 -627 240 0 240 0 0
1010 0 1010 -312 0 -313 0 -224 -443 c-123 -243 -237 -466 -254 -495 l-29 -54
-252 494 -251 493 -993 2 -992 3 0 -225z"/>
<path d="M3953 1572 c-108 -38 -178 -112 -210 -221 -41 -144 35 -303 176 -370
l56 -26 410 0 c400 0 411 1 457 22 60 28 134 101 161 161 31 66 31 198 0 264
-27 60 -101 133 -161 161 -45 21 -60 22 -442 24 -360 3 -400 1 -447 -15z m34
-139 c15 -23 18 -50 18 -163 0 -113 -3 -140 -18 -163 -33 -50 -105 -28 -147
45 -36 62 -36 174 0 236 42 74 114 96 147 45z"/>
</g>
</svg>
